<?xml version="1.0" encoding="UTF-8"?>
<svg width="1200pt" height="1200pt" version="1.1" viewBox="0 0 1200 1200" xmlns="http://www.w3.org/2000/svg">
 <path d="m622.09 1084.1c32.32 21.875 67.664 36.008 103.99 49.625-15.992 3.4023-31.969 6.8867-48.004 10.086-1.8086 0.35938-4.4141-0.3125-5.8438-1.4844-19.555-16.031-37.074-33.922-49.934-55.941-0.20703-0.35938-0.09375-0.91016-0.21094-2.2852z"/>
 <path d="m712.11 1090.1c24.871 6.4688 49.746 12.938 73.836 19.203-9.1445 9.5391-30.223 13.637-42.125 5.9336-11.422-7.3906-21.898-16.246-32.793-24.457 0.36328-0.22656 0.72266-0.45312 1.082-0.67969z"/>
 <path d="m789.56 1078.8c15.434 1.6055 30.328 3.1523 44.898 4.668-13.211 10.891-25.746 9.7305-44.898-4.668z"/>
 <path d="m546.67 453.98c9.9922-35.02 32.266-60.453 64.328-80.793-13.027 0-23.953 1.6055-34.219-0.31641-46.383-6.668-72.34-69.355-37.977-104.01 17.844-19.242 44.879-21.828 64.852-4.793 22.332 19.812 38.988 45.777 59.625 67.223 15.32 15.133 15.254 15.121 33.887 7.3867 12.195-5.0586 23.07-13.297 34.375-20.012-6.0117 16.992-21.039 26.82-35.703 38.273 18.855-2.5938 54.816-5.457 55.09-4.457-48.887 19.609-97.484 40.039-145.62 61.402-21.707 9.7812-41.371 23.195-58.637 40.094zm52.695-150.43c-0.67969-15.906-24.418-15.008-23.941 0.82812 1.0898 16.125 23.832 15.316 23.941-0.82812z"/>
 <path d="m912.18 529.91c-17.582-2.7227-37.719 1.2109-45.57-17.652-2.5117-6.6523-7.8516-9.3203-14.633-9.4336-18.703 1.3906-36.496-1.1914-39.199-23.27-5.8477-44.406 35.762-55.27 70.773-61.262 45.316-8.8477 129 0.35938 118.43 62.809-7.1484 36.695-36.703 8.1875-48.031 34.695-7.7305 13.031-29.5 11.781-41.77 14.113z"/>
 <path d="m273.45 305.61c-18.871-36.699-33.18-124.09 32.527-109.98 46.504 10.227 59.332 39.758 108.82 21.469-43.34 34.785-89.297 65.406-141.35 88.508z"/>
 <path d="m738.65 468.93c-11.137 3.293-246.38 29.004-349.7 59.02 67.23-33.738 287.04-71.758 349.7-59.02z"/>
 <path d="m1078.2 565.58c-11.648-10.121-11.816-9.9297-6.6367-24.086 0.078125-0.21875 0.34375-0.37109 1.9883-2.0547 61.887 38.664 102.73 89.707 120.15 161.3-6.7422-77.055-42.176-141.82-114.15-176.59-6.6094-4.3477-2.6289-13.121-2.8672-20 25.949 2.3672 49.578 9.9531 72.641 19.973-13.695-16.922-41.844-28.242-63.406-32.234-6.5742-1.1133-9.7539-2.7734-10.723-10.555-5.9414-44.836-33.227-82.621-66.113-112.2-2.4062-2.2188-5.3945-5.4922-5.4297-8.3086-0.23828-18.105-0.97266-36.344 0.80078-54.305 3.5977-36.371-4.5977-68.637-28.648-96.594-6.0391-12.133-5.2734-27.598-10.742-40.039-13.102-33.062-52.379-61.75-91.832-51.641-124.66-67.855-271.44-91.883-411.64-62.52-48.773 9.5195-95.488 25.457-140.68 46.023-3.7812 1.7188-8.3281 3.4688-12.227 2.9609-55.121-7.2031-102.87 22.824-120.17 75.793-6.7461 20.652-7.5977 41.906-7.6523 63.348-0.007813 3.3203-1.4062 7.5-3.6641 9.8164-36.473 37.629-69.062 78.645-98.625 121.85 0.25781 0.19141 0.51563 0.37891 0.77344 0.57031 23.074-15.762 46.152-31.527 70.895-48.43-86.707 112.81-130.09 239.32-144 377.12 12.707-22.434 25.414-44.863 38.121-67.297 0.49609 0.19141 0.98828 0.38672 1.4844 0.58203-8.4922 107.74-16.59 234.41 60.68 320.46 0.58984-0.30078 1.1797-0.59766 1.7695-0.89844-7.4688-21.414-12.625-43.109-9.6602-66.984 135.8 240.02 401.28 287.31 546.7 258.36-74.297-27.945-124.73-79.578-155.41-151.57-4.8164 39.914 5.6875 75.871 27.852 110.71-86.992-44.184-122.11-139.18-137.31-229.86-19.742 41.355-17.617 81.863-7.1406 123.03-70.887-78.066-83.742-202.94-11.18-283.66 10.887-14.055 21.676-21.109 40.027-14.871 14.727 5.0039 30.469 7.0352 47.898 10.855-32.391 13.543-56.418 32.789-72.762 63.645 59.34-16.496 117.88-15.605 176.81-11.012-20.73 9.8945-37.945 23.324-51.102 44.449 39.281-16.062 78.324-25.039 118.75-29.043-23.035 16.457-41.781 36.234-53.684 62.012 61.715-39.652 129.67-63.531 199.97-82.16-29.375 23.863-54.41 50.762-68.75 87.641 40.25-30.938 75.816-62.906 124.3-79.172 4.4336 75.133 25.777 143.32 78.188 201.7-40.168-10.023-67.605-32.48-86.926-66.742 11.344 56.176 50.621 93.883 103.54 113.26 1.793 0.64844 5.0234 0.19531 6.3008-1.0547 12.926-12.672 25.586-25.613 38.828-38.992-80.262-68.77-107.17-157.82-99.078-260.38 71.762-14.121 130.32-47.207 169.2-111.09 50.309 60.59 69.445 129.66 64.859 206.19 21.66-82.145 4.4062-155.59-50.191-220.75 3.6719-5.9883 7.2734-11.859 11.156-18.191 79.762 67.906 114.91 155.79 119.08 258.07 13.613-90.727-25.492-205.31-100.35-266.45zm-914.52 195.69c-16.605-93.035 46.875-150.94 137.24-131.46-14.516 18.695-28.828 37.195-43.262 55.594-1.0625 1.3555-2.9023 2.3984-4.5859 2.918-40.93 11.68-68.371 36.746-89.391 72.945zm166.8-5.5078c-1.7852 3.1836-3.6641 6.918-6.543 8.7969-30.379 19.68-43.445 49.254-42.598 84.879-26.816-43.75-52.477-99.188-21.773-146.13 17.039-23.992 38.09-44.215 61.496-61.977 1.4844-1.125 4.1367-2.2656 5.543-1.6875 10.125 4.1523 20.07 8.75 31.18 13.703-40.812 13.059-56.617 24.465-68.129 48.965 4.3867-1.0117 8.3594-1.9258 13.688-3.1523-5.4062 11.617-10.293 22.113-15.18 32.613 0.30469 0.14062 0.60938 0.27734 0.91016 0.41797 31.781-41.277 21.758-35.496 74.172-35.445-11.25 19.992-21.574 39.152-32.766 59.02zm164.63-116.84c-17.973-1.1484-54.406-7.3398-54.699-8.5039 38.113-27.984 80.062-49.469 121.54-71.914 4.9141-2.7109 8.6523-2.6758 12.766 1.543 3.5078 3.5938 7.8516 6.3711 12.32 9.9062-29.98 18.258-54.41 41.473-80.887 63.945-3.0391 2.543-7.4492 5.2539-11.043 5.0234zm271.34 33.914c23.945-10.328 47.355-20.422 70.762-30.52-0.125-0.47656-0.24609-0.94922-0.37109-1.4258-68.211 9.2305-136.61 17.41-205.07 24.469-28.199 2.7578-56.691 3.1172-85.059 3.2773-12.402 0.070312-24.828-3.082-37.293-5.9453 32.355-4.5508 62-14.117 85.863-38.25-22.578 4.6914-44.414 9.2305-66.254 13.77-0.55859-1.2109 36.148-30.184 54.367-44.34 12.805-9.9492 23.363-9.7461 37.949-1.6641 73.977 40.094 162.04 25.559 239.73 4.6562 2.7578-0.78516 5.9844-1.2695 8.6992-0.63672 20.52 4.7734 40.75 4.0781 60.875-2.1406 2.082-0.64453 4.7031-0.35156 6.8789 0.23437 16.07 4.332 32.094 8.8516 48.195 13.332-36.148 55.988-152.8 91.426-219.28 65.184zm273.23-139.86c-8.3984-5.0742-22.266-12.219-22.664-11.848 26.652 28.23 20.43 13.996 6.1133 53.449-1.8867 4.6367-4.9102 5.9453-10.066 5.6758-37.363-1.4727-70.781-12.926-100.41-36.098-56.871 36.293-219.16 55.996-285.35 24.348 45.57-23.602 140.89-55.777 140.74-56.453-53.18 8.5117-105.82 21.488-154.19 45.887-1.8984 0.96094-4.9336 1.4023-6.7148 0.55859-6.9805-3.3164-20.297-12.836-20.219-13.777 51.262-19.258 103.27-34.562 156.02-49.473-118.06 7.4023-228.68 47.332-316.91 127.86-3.6016 3.2695-6.7617 4.4375-11.559 2.4922-14.918-6.0547-30.012-11.68-46.766-18.137 57.059-47.059 215.07-93.473 214.83-94.441-82.18 11.84-163.94 31.699-233.28 79.598-2.0039 1.3359-5.6602 1.8633-7.8555 1.0039-35.094-13.738-37.828-14.164-75.75-9.457 14.762-41.152 59.73-49.445 94.816-59.957-26.742-7.8672-94.621-9.8672-153.93 11.129 2.2188-12.773 9.0547-22.152 18.016-30.023 30.195-27.184 71.039-27.855 109.13-31.504-57.863-10.047-113.77-6.0547-166.78 24.633 1.3438-15.863 7.6289-28.965 15.453-41.715-45.297 25.906-80.469 61.559-104.85 107.88 20.801-140.71 162.26-195.81 261.47-274.02-31.633 13.492-63.266 26.984-94.898 40.473-0.23438-0.34766-0.47266-0.69922-0.70703-1.0469 3.168-2.9102 6.3359-5.8164 9.9766-9.1602-75.152-111.13-8.4961-232.4 124.07-153.66-7.7383-11.734-15.473-23.469-23.828-36.137 198.64-86.965 479.79-62.598 608.33 129.11-20.312 11.25-29.465 30.133-35.793 50.977-8.5234 28.082-8.2578 26.812-34.727 21.418 75.16 43.305 163.83 100.65 148.28 200.42zm-90.516-214.97c0 4.6406-3.7617 8.3984-8.3984 8.3984-4.6406 0-8.3984-3.7617-8.3984-8.3984 0-4.6406 3.7617-8.3984 8.3984-8.3984s8.3984 3.7578 8.3984 8.3984z"/>
</svg>
